<svg id="outline" height="512" viewBox="0 0 512 512" width="512" xmlns="http://www.w3.org/2000/svg"><path d="m56 496h32a8.00008 8.00008 0 0 0 8-8v-40h360a40.04552 40.04552 0 0 0 40-40v-352a40.04552 40.04552 0 0 0 -40-40h-40a8.00008 8.00008 0 0 0 -8 8v56h-352a40.04552 40.04552 0 0 0 -40 40v336a40.04552 40.04552 0 0 0 40 40zm24-16h-24a24.02718 24.02718 0 0 1 -24-24v-304.019a39.79461 39.79461 0 0 0 24 8.019h24zm344-448h32a24 24 0 0 1 0 48h-32zm-368 64h400a39.79015 39.79015 0 0 0 24-8.022v320.022a24.02718 24.02718 0 0 1 -24 24h-360v-280a8.00008 8.00008 0 0 0 -8-8h-32a24 24 0 0 1 0-48z"/><path d="m216 176h16v16h-16z"/><path d="m168 312h16v16h-16z"/><path d="m168 280h16v16h-16z"/><path d="m200 280h16v16h-16z"/><path d="m136 408h16v-24h88v-16h-88v-104h96v24h16v-56h-16v16h-56v-88h56v48h16v-48h24v80a8.00008 8.00008 0 0 0 8 8h24v24h-32v16h40a8.00008 8.00008 0 0 0 8-8v-40a8.00008 8.00008 0 0 0 -8-8h-24v-72h120v208h-99.47l-21.66968-36.11621a8.00059 8.00059 0 0 0 -11.29785-2.54053l-4.03125 2.6875a52.73921 52.73921 0 0 0 -23.53122 43.96924 8.00008 8.00008 0 0 0 8 8h152v24h16v-24h24v-16h-24v-208h24v-16h-24v-24h-16v24h-272v-24h-16v24h-24v16h24v208h-24v16h24zm144.874-40a36.73235 36.73235 0 0 1 12.67-20.54395l12.32612 20.54395zm-104.874-120h-24v-88h24z"/></svg>